<?xml version="1.0" encoding="UTF-8" standalone="no"?>
<!-- Generator: visioncortex VTracer 0.6.5 -->

<svg
   version="1.1"
   width="189"
   height="173"
   id="svg24"
   sodipodi:docname="logo-kettle-copper-transparent.svg"
   inkscape:version="1.1.2 (0a00cf5339, 2022-02-04)"
   xmlns:inkscape="http://www.inkscape.org/namespaces/inkscape"
   xmlns:sodipodi="http://sodipodi.sourceforge.net/DTD/sodipodi-0.dtd"
   xmlns="http://www.w3.org/2000/svg"
   xmlns:svg="http://www.w3.org/2000/svg">
  <defs
     id="defs28" />
  <sodipodi:namedview
     id="namedview26"
     pagecolor="#ffffff"
     bordercolor="#666666"
     borderopacity="1.0"
     inkscape:pageshadow="2"
     inkscape:pageopacity="0.0"
     inkscape:pagecheckerboard="0"
     showgrid="false"
     inkscape:zoom="5.0462428"
     inkscape:cx="94.525773"
     inkscape:cy="23.086483"
     inkscape:window-width="2490"
     inkscape:window-height="1376"
     inkscape:window-x="2630"
     inkscape:window-y="1107"
     inkscape:window-maximized="1"
     inkscape:current-layer="svg24" />
  <path
     d="M0 0 C0.62 -0.01 0.62 -0.01 3.75 -0.06 C15.98 -0.11 25.87 2.13 34.97 10.69 C39.07 15.28 42.25 20.58 42.69 26.75 C42.61 27.58 42.52 28.4 42.44 29.25 C39.47 29.25 36.5 29.25 33.44 29.25 C33.21 28.66 32.98 28.07 32.74 27.46 C30.18 21.25 27.57 17.22 21.75 13.56 C9.47 8.7 -5.53 8.74 -17.99 13.1 C-22.93 15.4 -26.98 18.42 -29.69 23.27 C-30.99 27.69 -30.77 31.98 -30.69 36.56 C-30.68 37.49 -30.67 38.43 -30.66 39.38 C-30.64 41.67 -30.6 43.96 -30.56 46.25 C-29.56 45.83 -28.56 45.41 -27.53 44.97 C-26.19 44.42 -24.84 43.87 -23.5 43.31 C-23.17 43.17 -23.17 43.17 -21.51 42.47 C-17.16 40.69 -13.24 39.73 -8.56 39.25 C-8.73 38.99 -8.73 38.99 -9.56 37.69 C-10.95 34.32 -11.02 31.86 -10.56 28.25 C-6.92 25.39 -4.07 24.84 0.5 24.88 C1.52 24.87 2.54 24.86 3.6 24.85 C6.78 25.3 8.17 26.01 10.44 28.25 C11 31.99 10.59 33.03 8.44 36.25 C20.65 36.25 32.86 36.25 45.44 36.25 C43.59 39.94 42.15 41.79 39.29 44.65 C38.44 45.51 37.59 46.37 36.71 47.26 C35.78 48.18 34.86 49.1 33.91 50.05 C32.95 51 31.99 51.96 31.04 52.92 C29.04 54.93 27.03 56.93 25.02 58.92 C22.45 61.49 19.88 64.06 17.32 66.64 C15.35 68.62 13.37 70.59 11.39 72.56 C9.98 73.97 8.58 75.38 7.17 76.8 C6.74 77.22 6.74 77.22 4.58 79.37 C3.83 80.12 3.07 80.87 2.3 81.64 C0.44 83.25 0.44 83.25 -1.56 83.25 C-1.56 97.44 -1.56 111.63 -1.56 126.25 C-10.56 127.37 -10.56 127.37 -13.89 127.53 C-14.64 127.57 -15.39 127.6 -16.16 127.64 C-16.94 127.68 -17.72 127.71 -18.52 127.75 C-19.35 127.79 -20.18 127.83 -21.04 127.87 C-23.67 128 -26.31 128.13 -28.94 128.25 C-32.4 128.41 -35.87 128.58 -39.34 128.75 C-40.16 128.79 -40.99 128.83 -41.84 128.87 C-46.71 129.12 -51.54 129.52 -56.39 130.06 C-60.48 130.42 -64.58 130.35 -68.69 130.31 C-69.55 130.31 -70.41 130.3 -71.3 130.3 C-73.39 130.29 -75.47 130.27 -77.56 130.25 C-78.42 110.06 -75.06 89.53 -63.5 72.44 C-62.86 71.39 -62.22 70.33 -61.56 69.25 C-62.95 64.67 -67.02 61.15 -70.19 57.67 C-73.54 53.83 -73.54 53.83 -73.64 51.07 C-72.2 48.63 -70.59 47.61 -68.19 46.12 C-67.4 45.63 -66.6 45.13 -65.79 44.62 C-65.05 44.17 -64.32 43.71 -63.56 43.25 C-62.57 42.59 -61.58 41.93 -60.56 41.25 C-56.23 40.98 -54.44 41.54 -51.02 44.29 C-49.29 45.91 -47.57 47.55 -45.89 49.22 C-43.64 51.18 -42.47 51.88 -39.56 52.25 C-39.6 51.89 -39.6 51.89 -39.78 50.07 C-40.1 46.47 -40.35 42.86 -40.56 39.25 C-40.61 38.48 -40.66 37.72 -40.71 36.93 C-41.68 19.23 -41.68 19.23 -36.46 12.2 C-30.75 6.34 -24.34 3.42 -16.56 1.25 C-11.24 -0.52 -5.57 0.02 0 0 Z "
     fill="#CD591C"
     transform="translate(81.5625,23.75)"
     id="path4" />
  <path
     d="m 153.98,58.9 c 0.34,0 0.34,0 2.08,0 2.19,0.01 4.38,0.02 6.57,0.04 1.48,0 2.97,0 4.45,0.01 3.64,0.01 7.28,0.03 10.92,0.05 -1.27,2.76 -2.6,4.87 -4.69,7.07 -0.54,0.58 -1.09,1.16 -1.65,1.75 -0.59,0.61 -1.18,1.23 -1.78,1.87 -0.62,0.65 -1.23,1.3 -1.86,1.96 -1.32,1.4 -2.64,2.79 -3.96,4.18 -3.46,3.65 -6.92,7.32 -10.37,10.98 -0.67,0.72 -1.35,1.43 -2.04,2.17 -4.42,4.69 -8.77,9.42 -13.05,14.23 -1.16,1.3 -2.37,2.56 -3.6,3.79 0.05,3.21 1.31,4.33 3.48,6.73 1.04,1.01 2.09,2.02 3.15,3.02 1.1,1.07 2.2,2.14 3.3,3.22 0.54,0.52 1.07,1.04 1.62,1.57 2.41,2.41 4.6,5 6.81,7.6 2.43,2.75 5.07,5.29 7.68,7.87 1.87,1.89 3.61,3.84 5.34,5.86 2.74,3.19 5.63,6.17 8.62,9.13 8.92,8.83 8.92,8.83 12,13 0,0.66 0,1.32 0,2 -31.97,2.42 -31.97,2.42 -38.36,-2.52 -2.6,-2.81 -4.46,-6.05 -6.32,-9.38 -2.47,-3.94 -5.82,-7.11 -9.07,-10.41 -1.36,-1.44 -2.72,-2.87 -4.08,-4.31 -0.68,-0.72 -1.37,-1.44 -2.07,-2.18 -3.52,-3.7 -7.03,-7.42 -10.53,-11.14 -0.34,-0.35 -0.34,-0.35 -2.02,-2.14 -4.93,-5.24 -9.78,-10.54 -14.55,-15.92 1.32,-2.92 2.72,-4.95 5.02,-7.17 0.58,-0.58 1.17,-1.16 1.78,-1.76 0.31,-0.3 0.31,-0.3 1.89,-1.82 4.43,-4.35 8.73,-8.72 12.74,-13.46 2.4,-2.73 5.01,-5.24 7.6,-7.79 1.93,-1.96 3.74,-3.98 5.54,-6.06 10.4,-12.08 10.4,-12.08 19.41,-12.04 z"
     fill="#c45119"
     id="path6" />
  <path
     d="M0 0 C3.48 1.74 4.89 2.68 7.4 5.39 C8.04 6.07 8.67 6.75 9.33 7.46 C10 8.19 10.68 8.93 11.38 9.69 C12.08 10.45 12.78 11.2 13.51 11.98 C14.96 13.55 16.42 15.12 17.87 16.7 C19.85 18.84 21.85 20.98 23.85 23.11 C47 47.79 47 47.79 47 51 C34.71 51.98 22.44 52.29 10.12 52.54 C8.03 52.58 5.93 52.62 3.83 52.67 C-0.55 52.76 -4.93 52.84 -9.31 52.93 C-14.86 53.04 -20.4 53.15 -25.95 53.27 C-30.28 53.36 -34.61 53.45 -38.94 53.53 C-40.98 53.58 -43.02 53.62 -45.06 53.66 C-59.38 53.96 -73.68 54.05 -88 54 C-88 51.69 -88 49.38 -88 47 C-58.66 45.09 -29.4 43.58 0 43 C0 28.81 0 14.62 0 0 Z "
     fill="#B8491A"
     transform="translate(91,116)"
     id="path8" />
  <path
     d="M0 0 C-1.28 4.54 -3.88 7.3 -7.05 10.64 C-12.29 16.98 -15.21 23.58 -17.69 31.38 C-17.98 32.26 -18.28 33.14 -18.58 34.05 C-21.5 43 -23.22 51.72 -23.62 61.12 C-23.66 61.89 -23.7 62.66 -23.74 63.45 C-23.83 65.3 -23.92 67.15 -24 69 C-31.64 70.78 -39.18 71.53 -47 72 C-47.38 49.81 -46.25 31.82 -30.18 15.02 C-24.99 10.22 -19.8 7.22 -13.44 4.25 C-12.59 3.84 -11.74 3.43 -10.86 3 C-10.04 2.62 -9.22 2.23 -8.37 1.83 C-7.63 1.48 -6.88 1.12 -6.12 0.76 C-4 0 -4 0 0 0 Z "
     fill="#F29962"
     transform="translate(70,76)"
     id="path10" />
  <path
     d="M0 0 C6.07 1.69 9.47 4.01 13.31 9 C15.96 14.16 15.99 19.37 15 25 C14.1 27.66 12.99 30.17 11.75 32.69 C11.45 33.3 11.15 33.91 10.84 34.54 C9.49 37.07 8.55 38.74 5.91 39.98 C4 40 4 40 1.75 38.69 C-0.92 34.58 -0.63 30.77 0 26 C0.67 23.96 1.48 22.04 2.32 20.07 C4.06 14.77 3.67 9.56 1.5 4.5 C1 3.68 0.51 2.85 0 2 C0 1.34 0 0.68 0 0 Z "
     fill="#CF5E22"
     transform="translate(23,5)"
     id="path12" />
  <path
     d="M0 0 C1 2 1 2 0.06 5 C-2.54 13.76 -0.88 20.36 2.91 28.53 C4 31 4 31 4 33 C-0.42 32.49 -2.82 31.1 -6 28 C-9.38 23.34 -9.67 18.59 -9.56 12.98 C-8.63 8.02 -5.69 5.25 -2 2 C-1.34 1.34 -0.68 0.68 0 0 Z "
     fill="#D96727"
     transform="translate(18,22)"
     id="path14" />
  <path
     d="M0 0 C0 1.98 0 3.96 0 6 C1.98 6 3.96 6 6 6 C6 6.33 6 6.66 6 7 C-3.57 7.33 -13.14 7.66 -23 8 C-23 6.35 -23 4.7 -23 3 C-19.73 2.5 -16.46 2 -13.19 1.5 C-12.26 1.36 -11.33 1.21 -10.37 1.07 C-9.48 0.93 -8.59 0.8 -7.67 0.66 C-6.85 0.53 -6.02 0.4 -5.18 0.28 C-3 0 -3 0 0 0 Z "
     fill="#E4722E"
     transform="translate(46,145)"
     id="path16" />
  <path
     d="M0 0 C0.43 0.66 0.87 1.32 1.31 2 C5.62 5.2 9.8 4.31 15 4 C16.57 3.92 18.15 3.84 19.72 3.76 C24.15 3.53 28.58 3.27 33 3 C33 2.01 33 1.02 33 0 C34.38 1.29 35.71 2.63 37 4 C37 4.66 37 5.32 37 6 C32.21 6.1 27.43 6.17 22.64 6.22 C21.01 6.24 19.38 6.27 17.75 6.3 C15.41 6.35 13.07 6.37 10.73 6.39 C10 6.41 9.27 6.43 8.52 6.45 C5.2 6.45 3.48 6.46 1.02 4.1 C0 2 0 2 0 0 Z "
     fill="#9F3E1D"
     transform="translate(150,161)"
     id="path18" />
  <path
     d="M0 0 C0.66 0 1.32 0 2 0 C0.47 3.44 -1.6 6.12 -4 9 C-4.66 8.67 -5.32 8.34 -6 8 C-5.05 6.66 -4.09 5.33 -3.12 4 C-2.59 3.26 -2.06 2.52 -1.51 1.75 C-1.01 1.17 -0.51 0.59 0 0 Z "
     fill="#D3632C"
     transform="translate(49,32)"
     id="path20" />
  <path
     d="M0 0 C1.25 2.49 0.78 3.41 0 6 C-2.49 6.69 -4.38 7 -7 7 C-4.69 4.69 -2.38 2.38 0 0 Z "
     fill="#E1793A"
     transform="translate(18,22)"
     id="path22" />
</svg>
